<?xml version="1.0" encoding="iso-8859-1"?>
<!-- Generator: Adobe Illustrator 16.0.0, SVG Export Plug-In . SVG Version: 6.00 Build 0)  -->
<!DOCTYPE svg PUBLIC "-//W3C//DTD SVG 1.1//EN" "http://www.w3.org/Graphics/SVG/1.1/DTD/svg11.dtd">
<svg version="1.1" id="Capa_1" xmlns="http://www.w3.org/2000/svg" xmlns:xlink="http://www.w3.org/1999/xlink" x="0px" y="0px"
	 width="83.818px" height="83.818px" viewBox="0 0 83.818 83.818" style="enable-background:new 0 0 83.818 83.818;"
	 xml:space="preserve">
<g>
	<g>
		<path d="M63.29,26.517h-1.557v38.096h1.557c1.867,0,3.387-1.52,3.387-3.387V29.902C66.675,28.035,65.157,26.517,63.29,26.517z"/>
		<rect x="24.084" y="26.517" width="35.647" height="38.096"/>
		<path d="M41.909,0C18.764,0,0.001,18.764,0.001,41.91c0,23.145,18.764,41.908,41.908,41.908c23.146,0,41.908-18.765,41.908-41.908
			C83.817,18.764,65.056,0,41.909,0z M34.049,17.205h16.267c2.971,0,5.387,2.416,5.387,5.386c0,0.553-0.447,1-1,1s-1-0.447-1-1
			c0-1.867-1.52-3.386-3.387-3.386H34.049c-1.867,0-3.387,1.519-3.387,3.386c0,0.553-0.447,1-1,1c-0.552,0-1-0.447-1-1
			C28.663,19.621,31.079,17.205,34.049,17.205z M68.675,61.227c0,2.971-2.416,5.387-5.386,5.387h-2.558H23.084h-2.558
			c-2.97,0-5.386-2.416-5.386-5.387V29.902c0-2.97,2.416-5.386,5.386-5.386h2.558h37.647h2.558c2.97,0,5.386,2.416,5.386,5.386
			V61.227z"/>
		<path d="M17.141,29.902v31.325c0,1.866,1.52,3.385,3.386,3.385h1.558V26.517h-1.558C18.661,26.517,17.141,28.035,17.141,29.902z"
			/>
	</g>
</g>
<g>
</g>
<g>
</g>
<g>
</g>
<g>
</g>
<g>
</g>
<g>
</g>
<g>
</g>
<g>
</g>
<g>
</g>
<g>
</g>
<g>
</g>
<g>
</g>
<g>
</g>
<g>
</g>
<g>
</g>
</svg>
